<?xml version="1.0" encoding="UTF-8"?>
<svg id="Layer_1" xmlns="http://www.w3.org/2000/svg" version="1.1" viewBox="0 0 187.09 188.22">
  <!-- Generator: Adobe Illustrator 29.0.0, SVG Export Plug-In . SVG Version: 2.1.0 Build 186)  -->
  <defs>
    <style>
      .st0 {
        fill: #f6b0bc;
      }

      .st1 {
        fill: #fcebef;
      }
    </style>
  </defs>
  <rect class="st0" width="187.09" height="188.22" rx="13.01" ry="13.01"/>
  <g>
    <path class="st1" d="M130.79,68.2c-16.56-5.83-29.9.39-37.13,6.56-8.82-6.89-19.94-8.86-31.27-5.37-14.18,4.37-25.2,16.42-27.43,29.99-2.1,12.76,2.12,26.7,11.57,38.24,9.43,11.51,22.36,18.64,34.58,19.07,19.49.68,30.92-4.13,43.68-18.4,8.4-9.39,15.08-27.26,11.21-39.75-2-6.46-6.7-10.9-13.24-12.51-9.09-2.23-17.12.08-22.03,6.33-4.15,5.29-5.32,12.45-3.48,19.74-10.02,1.94-19.2,7.68-25.52,22.89-1.11,2.67.16,5.74,2.83,6.85.66.27,1.34.4,2.01.4,2.05,0,4-1.22,4.84-3.23,5.47-13.16,12.97-16.62,22.57-17.23.48.05.97.01,1.46-.07,2.33-.08,4.78-.02,7.35.1,2.88.12,5.34-2.11,5.47-5,.13-2.89-2.11-5.34-5-5.47-1.78-.08-3.56-.13-5.34-.13-1.64-4.74-1.3-9.38,1.05-12.38,2.29-2.92,6.29-3.85,11.29-2.62,2.98.73,4.8,2.46,5.72,5.43,2.58,8.34-2.63,22.54-9.01,29.67-10.74,12.01-19.04,15.49-35.5,14.91-9.12-.32-19.4-6.16-26.84-15.24-7.54-9.21-10.94-20.1-9.33-29.89,1.58-9.59,9.88-18.51,20.18-21.68,5.39-1.66,15.75-3.06,24.59,6.22l4.17,4.38,3.74-4.76c.11-.14,10.98-13.61,29.33-7.16,22.09,7.77,20.92,33.16,16.75,46.94-.4,1.31-4.21,13.12-15.4,23.68-11.48,10.83-26.09,16.02-43.41,15.42-2.89-.09-5.32,2.16-5.42,5.06-.1,2.89,2.16,5.32,5.06,5.42,1,.03,1.97.05,2.94.05,41.15,0,61.31-30.23,66.26-46.59,6.81-22.49,2.43-50.81-23.3-59.86Z"/>
    <path class="st1" d="M92.39,66.09c13.03,0,23.64-10.6,23.64-23.64s-10.6-23.64-23.64-23.64-23.64,10.6-23.64,23.64,10.6,23.64,23.64,23.64ZM92.39,29.3c7.25,0,13.16,5.9,13.16,13.15s-5.9,13.16-13.16,13.16-13.15-5.9-13.15-13.16,5.9-13.15,13.15-13.15Z"/>
  </g>
</svg>